# xmcd
#
# Track frame offsets:
#	150
#	19372
#	38549
#	60634
#	82670
#	104178
#	120575
#	142552
#	166998
#	182917
#	196384
#	215133
#
# Disc length: 3114 seconds
#
# Revision: 0
# Processed by: cddbd v1.5.2PL0 Copyright (c) Steve Scherf et al.
# Submitted via: dBpowerAMP V4.0
#
DISCID=a10c280c
DTITLE=BRUNA KARLA - VENTO DO ESPIRITO
DYEAR=2005
DGENRE=GOSPEL
TTITLE0=VENTO DO ESPIRITO
TTITLE1=VOCÊ PRECISA
TTITLE2=CONFIA EM TI
TTITLE3=LINDO CORAL
TTITLE4=UM MILAGRE VAI ACONTECER
TTITLE5=TRANSFORMANDO CORAÇÕES
TTITLE6=OURO INCENSO E MIRRA
TTITLE7=FENÔMENO
TTITLE8=MINHA JUSTIFICAÇÃO
TTITLE9=PODER
TTITLE10=TOQUE NAS ÁGUAS
TTITLE11=UMA MULHER UM MILAGRE
EXTD=bom
EXTT0=
EXTT1=
EXTT2=
EXTT3=
EXTT4=
EXTT5=
EXTT6=
EXTT7=
EXTT8=
EXTT9=
EXTT10=
EXTT11=
PLAYORDER=
